<svg xmlns="http://www.w3.org/2000/svg" width="1000" height="620" viewBox="0 0 1000 620" font-family="-apple-system,Segoe UI,Helvetica,Arial,sans-serif">
<rect width="1000" height="620" fill="white"/>
<text x="96" y="44" font-size="27" font-weight="700" fill="#111827">Streaming: time to first token vs concurrent streams</text>
<text x="96" y="74" font-size="15" fill="#6b7280">Both gateways translate the same Anthropic SSE stream to OpenAI chunks (equal work), one worker each.</text>
<text x="96" y="95" font-size="15" fill="#6b7280">50 tok/s per stream &#183; C++ provider &#183; median of 3 runs &#183; log y-axis &#183; lower is better.</text>
<line x1="96" y1="504.0" x2="956" y2="504.0" stroke="#e5e7eb" stroke-width="1"/>
<text x="86" y="509.0" font-size="15" fill="#6b7280" text-anchor="end">10 ms</text>
<line x1="96" y1="407.0" x2="956" y2="407.0" stroke="#e5e7eb" stroke-width="1"/>
<text x="86" y="412.0" font-size="15" fill="#6b7280" text-anchor="end">100 ms</text>
<line x1="96" y1="310.0" x2="956" y2="310.0" stroke="#e5e7eb" stroke-width="1"/>
<text x="86" y="315.0" font-size="15" fill="#6b7280" text-anchor="end">1 s</text>
<line x1="96" y1="213.0" x2="956" y2="213.0" stroke="#e5e7eb" stroke-width="1"/>
<text x="86" y="218.0" font-size="15" fill="#6b7280" text-anchor="end">10 s</text>
<line x1="96" y1="116.0" x2="956" y2="116.0" stroke="#e5e7eb" stroke-width="1"/>
<text x="86" y="121.0" font-size="15" fill="#6b7280" text-anchor="end">100 s</text>
<rect x="134.7" y="456.9" width="64.5" height="47.1" fill="#16a34a" rx="3"/>
<text x="166.9" y="448.9" font-size="16" font-weight="600" fill="#16a34a" text-anchor="middle">31 ms</text>
<rect x="207.2" y="409.7" width="64.5" height="94.3" fill="#dc2626" rx="3"/>
<text x="239.4" y="401.7" font-size="16" font-weight="600" fill="#dc2626" text-anchor="middle">94 ms</text>
<line x1="102.0" y1="456.6" x2="305.0" y2="456.6" stroke="#2563eb" stroke-width="1.6" stroke-dasharray="6 4"/>
<text x="203.5" y="534.0" font-size="18" fill="#111827" text-anchor="middle">16</text>
<rect x="349.7" y="456.5" width="64.5" height="47.5" fill="#16a34a" rx="3"/>
<text x="381.9" y="448.5" font-size="16" font-weight="600" fill="#16a34a" text-anchor="middle">31 ms</text>
<rect x="422.2" y="274.5" width="64.5" height="229.5" fill="#dc2626" rx="3"/>
<text x="454.4" y="266.5" font-size="16" font-weight="600" fill="#dc2626" text-anchor="middle">2.3 s</text>
<line x1="317.0" y1="456.9" x2="520.0" y2="456.9" stroke="#2563eb" stroke-width="1.6" stroke-dasharray="6 4"/>
<text x="418.5" y="534.0" font-size="18" fill="#111827" text-anchor="middle">64</text>
<rect x="564.7" y="456.5" width="64.5" height="47.5" fill="#16a34a" rx="3"/>
<text x="597.0" y="448.5" font-size="16" font-weight="600" fill="#16a34a" text-anchor="middle">31 ms</text>
<rect x="637.2" y="204.9" width="64.5" height="299.1" fill="#dc2626" rx="3"/>
<text x="669.5" y="196.9" font-size="16" font-weight="600" fill="#dc2626" text-anchor="middle">12.1 s</text>
<line x1="532.0" y1="456.7" x2="735.0" y2="456.7" stroke="#2563eb" stroke-width="1.6" stroke-dasharray="6 4"/>
<text x="633.5" y="534.0" font-size="18" fill="#111827" text-anchor="middle">256</text>
<rect x="779.7" y="456.3" width="64.5" height="47.7" fill="#16a34a" rx="3"/>
<text x="812.0" y="448.3" font-size="16" font-weight="600" fill="#16a34a" text-anchor="middle">31 ms</text>
<rect x="852.2" y="197.8" width="64.5" height="306.2" fill="#dc2626" rx="3"/>
<text x="884.5" y="189.8" font-size="16" font-weight="600" fill="#dc2626" text-anchor="middle">14.4 s</text>
<line x1="747.0" y1="456.7" x2="950.0" y2="456.7" stroke="#2563eb" stroke-width="1.6" stroke-dasharray="6 4"/>
<text x="848.5" y="534.0" font-size="18" fill="#111827" text-anchor="middle">512</text>
<text x="526.0" y="566.0" font-size="15" fill="#6b7280" text-anchor="middle">concurrent streams</text>
<rect x="96" y="575" width="14" height="14" fill="#16a34a" rx="2"/>
<text x="117" y="587" font-size="15" fill="#6b7280">llmbridge</text>
<rect x="194" y="575" width="14" height="14" fill="#dc2626" rx="2"/>
<text x="215" y="587" font-size="15" fill="#6b7280">LiteLLM</text>
<rect x="276" y="575" width="14" height="14" fill="#2563eb" rx="2"/>
<text x="297" y="587" font-size="15" fill="#6b7280">no-gateway floor</text>
</svg>